<?xml version="1.0" encoding="UTF-8"?>
<svg width="126px" height="120px" viewBox="0 0 126 120" version="1.1" xmlns="http://www.w3.org/2000/svg" xmlns:xlink="http://www.w3.org/1999/xlink">
    <title>bigml_version_light_ml</title>
    <desc>Created with Sketch.</desc>
    <defs></defs>
    <g id="bigml_version_light_ml" stroke="none" stroke-width="1" fill="none" fill-rule="evenodd">
        <g id="bigml_version_light" transform="translate(26.000000, 23.000000)">
            <path d="M37.9460998,1 C18.0932079,1 2,17.0932079 2,36.9460998 C2,56.7984417 18.0932079,72.8916496 37.9460998,72.8916496 C57.7967915,72.8916496 73.8899994,56.7984417 73.8899994,36.9460998 C73.8899994,17.0932079 57.7967915,1 37.9460998,1 Z" id="Path" fill="#FFFFFF"></path>
            <g id="Group-2-Copy-2" fill="#82A11D">
                <path d="M54.5669541,41.0266007 L54.5669541,12.0699929 L61.230417,12.0699929 L61.230417,39.8087915 C61.230417,43.3938092 61.9987562,44.6772014 63.9843392,45.8299929 L67.5733145,47.8800283 L64.6260353,53.1334558 C57.7720424,49.8673074 54.5669541,47.4950106 54.5669541,41.0266007 Z M49.0478021,52.3000989 L42.38547,52.3000989 L42.38547,32.9542332 C42.38547,29.2386148 40.0165654,27.1246926 37.2615124,27.1246926 C34.0575548,27.1246926 31.6880848,29.0463887 31.6880848,33.851477 L31.6880848,52.3000989 L25.0257527,52.3000989 L25.0257527,33.851477 C25.0257527,29.0463887 22.6568481,27.1246926 19.4528905,27.1246926 C16.6984028,27.1246926 14.3283675,29.2386148 14.3283675,32.9542332 L14.3283675,52.3000989 L7.66603534,52.3000989 L7.66603534,32.8892155 C7.66603534,25.0107703 12.9194629,20.4617951 19.005682,20.4617951 C23.6796042,20.4617951 27.0752226,22.7046219 28.2935972,25.9713357 L28.4202403,25.9713357 C29.6374841,22.7046219 33.0331025,20.4617951 37.7092862,20.4617951 C43.7943746,20.4617951 49.0478021,25.0107703 49.0478021,32.8892155 L49.0478021,52.3000989 Z M37.9439152,0.133879859 C17.5385442,0.133879859 0.997484099,16.6749399 0.997484099,37.080311 C0.997484099,57.4851166 17.5385442,74.0261767 37.9439152,74.0261767 C58.3470247,74.0261767 74.8880848,57.4851166 74.8880848,37.080311 C74.8880848,16.6749399 58.3470247,0.133879859 37.9439152,0.133879859 Z" id="Fill-1"></path>
            </g>
            <path d="M65,5 C65,2.21917808 67.2159888,0 69.9789621,0 C72.769986,0 75,2.21917808 75,5 C75,7.78082192 72.769986,10 69.9789621,10 C67.2159888,10 65,7.78082192 65,5 Z M66.0238429,5 C66.0238429,7.28767123 67.7489481,9.06849315 69.9789621,9.06849315 C72.2370266,9.06849315 73.9761571,7.28767123 73.9761571,5 C73.9761571,2.71232877 72.2370266,0.931506849 69.9789621,0.931506849 C67.7489481,0.931506849 66.0238429,2.71232877 66.0238429,5 Z M68.2678822,7.56164384 L68.2678822,2.39726027 L70.3015428,2.39726027 C71.2973352,2.39726027 71.970547,3.01369863 71.970547,3.97260274 C71.970547,4.76712329 71.4375877,5.23287671 71.002805,5.34246575 L71.002805,5.36986301 C71.002805,5.36986301 71.058906,5.42465753 71.1851332,5.65753425 L72.1949509,7.56164384 L71.1009818,7.56164384 L70.1192146,5.56164384 L69.2636746,5.56164384 L69.2636746,7.56164384 L68.2678822,7.56164384 Z M69.2636746,4.84931507 L70.1051893,4.84931507 C70.6241234,4.84931507 70.9607293,4.52054795 70.9607293,3.97260274 C70.9607293,3.43835616 70.6241234,3.1369863 70.1051893,3.1369863 L69.2636746,3.1369863 L69.2636746,4.84931507 Z" id="®" fill="#82A11D"></path>
        </g>
    </g>
</svg>
