<?xml version="1.0" encoding="UTF-8"?>
<svg width="210px" height="120px" viewBox="0 0 210 120" version="1.1" xmlns="http://www.w3.org/2000/svg" xmlns:xlink="http://www.w3.org/1999/xlink">
    <title>bigml_version_light</title>
    <desc>Created with Sketch.</desc>
    <defs>
        <polygon id="path-1" points="0 0.212749117 33.053682 0.212749117 33.053682 41.2733852 0 41.2733852"></polygon>
    </defs>
    <g id="bigml_version_light" stroke="none" stroke-width="1" fill="none" fill-rule="evenodd">
        <g transform="translate(27.000000, 23.000000)">
            <g id="Group-2-Copy">
                <path d="M119.9461,1 C100.093208,1 84,17.0932079 84,36.9460998 C84,56.7984417 100.093208,72.8916496 119.9461,72.8916496 C139.796791,72.8916496 155.889999,56.7984417 155.889999,36.9460998 C155.889999,17.0932079 139.796791,1 119.9461,1 Z" id="Path" fill="#FFFFFF"></path>
                <path d="M136.56947,40.8927208 L136.56947,11.9361131 L143.232933,11.9361131 L143.232933,39.6749117 C143.232933,43.2599293 144.001272,44.5433216 145.986855,45.6961131 L149.57583,47.7461484 L146.628551,52.999576 C139.774558,49.7334276 136.56947,47.3611307 136.56947,40.8927208 Z M131.050318,52.1662191 L124.387986,52.1662191 L124.387986,32.8203534 C124.387986,29.104735 122.019081,26.9908127 119.264028,26.9908127 C116.060071,26.9908127 113.690601,28.9125088 113.690601,33.7175972 L113.690601,52.1662191 L107.028269,52.1662191 L107.028269,33.7175972 C107.028269,28.9125088 104.659364,26.9908127 101.455406,26.9908127 C98.7009187,26.9908127 96.3308834,29.104735 96.3308834,32.8203534 L96.3308834,52.1662191 L89.6685512,52.1662191 L89.6685512,32.7553357 C89.6685512,24.8768905 94.9219788,20.3279152 101.008198,20.3279152 C105.68212,20.3279152 109.077739,22.570742 110.296113,25.8374558 L110.422756,25.8374558 C111.64,22.570742 115.035618,20.3279152 119.711802,20.3279152 C125.79689,20.3279152 131.050318,24.8768905 131.050318,32.7553357 L131.050318,52.1662191 Z M119.946431,0 C99.5410601,0 83,16.5410601 83,36.9464311 C83,57.3512367 99.5410601,73.8922968 119.946431,73.8922968 C140.349541,73.8922968 156.890601,57.3512367 156.890601,36.9464311 C156.890601,16.5410601 140.349541,0 119.946431,0 Z" id="Fill-1" fill="#82A11D"></path>
                <g id="Group-5" transform="translate(0.000000, 11.835477)">
                    <mask id="mask-2" fill="white">
                        <use xlink:href="#path-1"></use>
                    </mask>
                    <g id="Clip-4"></g>
                    <path d="M16.3339647,14.8818657 C10.7616678,14.8818657 6.66159717,19.1730318 6.66159717,24.9386855 C6.66159717,30.7032085 10.7616678,34.9949399 16.3339647,34.9949399 C21.9079576,34.9949399 26.0074629,30.7032085 26.0074629,24.9386855 C26.0074629,19.1730318 21.9079576,14.8818657 16.3339647,14.8818657 Z M-0.000169611307,0.212749117 L6.66159717,0.212749117 L6.66159717,13.2157173 L6.7899364,13.2157173 C8.39106714,10.6534558 12.5550247,8.60342049 16.9106431,8.60342049 C24.9824452,8.60342049 33.053682,14.5613004 33.053682,24.9386855 C33.053682,35.3160707 24.9824452,41.2733852 16.9106431,41.2733852 C12.5550247,41.2733852 8.39106714,39.2239152 6.7899364,36.660523 L6.66159717,36.660523 L6.66159717,40.4400283 L-0.000169611307,40.4400283 L-0.000169611307,0.212749117 Z" id="Fill-3" fill="#2B3337" mask="url(#mask-2)"></path>
                </g>
                <path d="M36.8587986,52.2753357 L43.5205654,52.2753357 L43.5205654,21.2720848 L36.8587986,21.2720848 L36.8587986,52.2753357 Z M40.1899647,11.2146996 C42.2394346,11.2146996 43.9050177,12.8814134 43.9050177,14.9308834 C43.9050177,16.9809187 42.2394346,18.645371 40.1899647,18.645371 C38.1399293,18.645371 36.4743463,16.9809187 36.4743463,14.9308834 C36.4743463,12.8814134 38.1399293,11.2146996 40.1899647,11.2146996 Z" id="Fill-6" fill="#2B3337"></path>
                <path d="M63.6271943,45.9973428 C69.0078304,45.9973428 72.8506572,41.7061767 72.8506572,36.3894276 C72.8506572,31.0087915 68.687265,26.7170601 63.6271943,26.7170601 C58.4376537,26.7170601 54.2742615,31.0087915 54.2742615,36.3249753 C54.2742615,41.7061767 57.9898799,45.9973428 63.6271943,45.9973428 Z M79.1285371,48.8168481 C79.1285371,59.0670247 71.3134134,64.9576254 62.922742,64.9576254 C58.6304452,64.9576254 53.377583,63.16653 49.8547562,58.8086502 L55.2992792,54.8380495 C56.5804099,56.6319717 59.4626714,58.6814417 62.6016113,58.6814417 C69.3917173,58.6814417 72.8506572,54.2608057 72.8506572,49.5213004 L72.8506572,47.471265 C70.0328481,50.6096396 66.8294558,52.275788 62.2810459,52.275788 C54.2742615,52.275788 47.2280424,46.2551519 47.2280424,36.4538799 C47.2280424,26.2681555 54.7864876,20.4391802 63.0499505,20.4391802 C67.2139081,20.4391802 70.5450742,22.0408763 72.7228834,24.9237032 L72.8506572,24.9237032 L72.8506572,21.2719717 L79.1285371,21.2719717 L79.1285371,48.8168481 Z" id="Fill-8" fill="#2B3337"></path>
            </g>
            <path d="M147,5 C147,2.21917808 149.215989,0 151.978962,0 C154.769986,0 157,2.21917808 157,5 C157,7.78082192 154.769986,10 151.978962,10 C149.215989,10 147,7.78082192 147,5 Z M148.023843,5 C148.023843,7.28767123 149.748948,9.06849315 151.978962,9.06849315 C154.237027,9.06849315 155.976157,7.28767123 155.976157,5 C155.976157,2.71232877 154.237027,0.931506849 151.978962,0.931506849 C149.748948,0.931506849 148.023843,2.71232877 148.023843,5 Z M150.267882,7.56164384 L150.267882,2.39726027 L152.301543,2.39726027 C153.297335,2.39726027 153.970547,3.01369863 153.970547,3.97260274 C153.970547,4.76712329 153.437588,5.23287671 153.002805,5.34246575 L153.002805,5.36986301 C153.002805,5.36986301 153.058906,5.42465753 153.185133,5.65753425 L154.194951,7.56164384 L153.100982,7.56164384 L152.119215,5.56164384 L151.263675,5.56164384 L151.263675,7.56164384 L150.267882,7.56164384 Z M151.263675,4.84931507 L152.105189,4.84931507 C152.624123,4.84931507 152.960729,4.52054795 152.960729,3.97260274 C152.960729,3.43835616 152.624123,3.1369863 152.105189,3.1369863 L151.263675,3.1369863 L151.263675,4.84931507 Z" id="®" fill="#2B3337"></path>
        </g>
    </g>
</svg>
